<?xml version="1.0"?>
<svg version="1.1" xmlns="http://www.w3.org/2000/svg" width="330" height="44" style=""><path fill="#" d="M16.26,43.6l0-3.06l2.7-1.08l0-16.92l-2.7-1.08l0-3.06l9.288-0.18l5.4,11.988l5.652-11.808l8.64-0.18l0,3.24l-2.592,1.08l0,16.92l2.7,1.08l0,3.06l-10.728,0l0-3.06l2.808-1.08l0-13.536l-0.972,2.376l-4.068,8.46l-3.888,0.18l-4.14-8.532l-0.612-1.872l0,12.924l2.772,1.08l0,3.06l-10.26,0z M60.09036,23.8c5.832,0,9.072,3.528,9.072,9.72c0,6.48-3.78,10.44-9.612,10.44c-5.868,0-9.18-3.06-9.18-9.9c0-6.48,3.852-10.26,9.72-10.26z M59.91036,28.12c-2.628,0-3.96,1.44-3.96,5.76c0,3.96,1.152,5.76,3.78,5.76c2.592,0,3.852-1.62,3.852-5.94c0-3.672-1.08-5.58-3.672-5.58z M84.87672,27.22l0-2.88l9.432-0.18l0,3.06l-2.052,0.468l-5.796,15.912l-5.94,0l-5.688-15.804l-1.728-0.576l0-2.88l9.432-0.18l0,3.06l-2.016,0.36l3.276,10.62l3.168-10.512z M100.48308,18.22c0-2.052,1.476-3.24,3.096-3.24c1.872,0,3.024,0.972,3.024,3.24c0,2.124-1.548,3.276-3.024,3.276c-1.944,0-3.096-1.152-3.096-3.276z M106.53108,39.82l2.52,0.9l0,2.88l-10.8,0l0-2.88l2.88-0.9l0-11.7l-2.88-0.9l0-2.88l8.28-0.18l0,15.66z M131.46144,35.068l-11.952,0c0.216,2.88,1.872,4.572,4.356,4.572c2.988,0,6.048-1.692,6.048-1.692l1.548,2.988s-3.6,3.024-8.208,3.024c-6.192,0-9.36-3.6-9.36-9.72c0-6.3,3.564-10.44,9.612-10.44c5.364,0,8.172,3.312,8.172,8.46c0,1.368-0.216,2.7-0.216,2.808z M119.58144,31.72l6.516,0c0-2.052-0.864-3.6-2.952-3.6c-2.016,0-3.276,1.476-3.564,3.6z"/><path fill="#0e8feb" d="M141.8798,43.6l0-3.06l2.7-1.08l0-16.92l-2.7-1.08l0-3.06l10.98-0.18l0,3.24l-2.7,1.08l0,16.92l2.7,1.08l0,3.06l-10.98,0z M165.69416,24.16l0.252,2.484s3.42-2.772,6.624-2.772c3.492,0,5.472,2.484,5.472,6.408l0,9.54l2.52,0.9l0,2.88l-9.9,0l0-2.88l1.98-0.9l0-8.568c0-1.656-0.936-2.88-2.448-2.88c-2.232,0-3.852,2.052-3.852,2.052l0,9.396l1.98,0.9l0,2.88l-10.26,0l0-2.88l2.88-0.9l0-11.7l-2.88-0.9l0-2.88z M188.64452,24.52l0-1.62c0-4.572,2.628-7.632,7.74-7.632c3.888,0,6.372,1.332,6.372,1.332l-0.108,5.292l-3.24,0l-0.54-2.52s-0.864-0.144-2.052-0.144c-1.98,0-2.772,1.188-2.772,3.06l0,2.232l4.68,0l-0.108,3.6l-4.572,0l0,11.7l3.6,0.9l0,2.88l-11.88,0l0-2.88l2.88-0.9l0-11.7l-3.24,0l0-3.06z M214.07888,23.8c5.832,0,9.072,3.528,9.072,9.72c0,6.48-3.78,10.44-9.612,10.44c-5.868,0-9.18-3.06-9.18-9.9c0-6.48,3.852-10.26,9.72-10.26z M213.89888,28.12c-2.628,0-3.96,1.44-3.96,5.76c0,3.96,1.152,5.76,3.78,5.76c2.592,0,3.852-1.62,3.852-5.94c0-3.672-1.08-5.58-3.672-5.58z"/></svg>
